# Export of Cubik Model: Cubik Model
# Designed by TheRoxforbraynz  with Cubik Studio - https://cubik.studio
# from Cubik OBJ Exporter v1.0
mtllib pedestal.mtl
v -11 0 -11 1 1 1
v -5 0 -11 1 1 1
v -5 0 -5 1 1 1
v -11 0 -5 1 1 1
v -5 1 -11 1 1 1
v -11 1 -11 1 1 1
v -11 1 -5 1 1 1
v -5 1 -5 1 1 1
v -5 1 -5 1 1 1
v -11 1 -5 1 1 1
v -11 0 -5 1 1 1
v -5 0 -5 1 1 1
v -11 1 -11 1 1 1
v -5 1 -11 1 1 1
v -5 0 -11 1 1 1
v -11 0 -11 1 1 1
v -5 1 -11 1 1 1
v -5 1 -5 1 1 1
v -5 0 -5 1 1 1
v -5 0 -11 1 1 1
v -11 1 -5 1 1 1
v -11 1 -11 1 1 1
v -11 0 -11 1 1 1
v -11 0 -5 1 1 1
vn 0 -1 0
vn 0 1 0
vn 0 0 1
vn 0 0 -1
vn 1 0 0
vn -1 0 0
vt 0.1875 0.625
vt 0 0.625
vt 0 0.53125
vt 0.1875 0.53125
vt 0.375 0.625
vt 0.375 0.53125
vt 0.25 0.703125
vt 0.4375 0.703125
vt 0.4375 0.6875
vt 0.25 0.6875
vt 0.4375 0.71875
vt 0.25 0.71875
vt 0.4375 0.734375
vt 0.25 0.734375
vt 0.25 0.75
vt 0.4375 0.75
v -10 1 -10 1 1 1
v -6 1 -10 1 1 1
v -6 1 -6 1 1 1
v -10 1 -6 1 1 1
v -6 2 -10 1 1 1
v -10 2 -10 1 1 1
v -10 2 -6 1 1 1
v -6 2 -6 1 1 1
v -6 2 -6 1 1 1
v -10 2 -6 1 1 1
v -10 1 -6 1 1 1
v -6 1 -6 1 1 1
v -10 2 -10 1 1 1
v -6 2 -10 1 1 1
v -6 1 -10 1 1 1
v -10 1 -10 1 1 1
v -6 2 -10 1 1 1
v -6 2 -6 1 1 1
v -6 1 -6 1 1 1
v -6 1 -10 1 1 1
v -10 2 -6 1 1 1
v -10 2 -10 1 1 1
v -10 1 -10 1 1 1
v -10 1 -6 1 1 1
vt 0.5 0.59375
vt 0.375 0.59375
vt 0.5 0.53125
vt 0 0.6875
vt 0.125 0.6875
vt 0.125 0.625
vt 0.375 0.609375
vt 0.5 0.609375
vt 0.5 0.625
vt 0.125 0.765625
vt 0 0.765625
vt 0 0.75
vt 0.125 0.75
vt 0 0.78125
vt 0.125 0.78125
v -10 6 -10 1 1 1
v -6 6 -10 1 1 1
v -6 6 -6 1 1 1
v -10 6 -6 1 1 1
v -6 7 -10 1 1 1
v -10 7 -10 1 1 1
v -10 7 -6 1 1 1
v -6 7 -6 1 1 1
v -6 7 -6 1 1 1
v -10 7 -6 1 1 1
v -10 6 -6 1 1 1
v -6 6 -6 1 1 1
v -10 7 -10 1 1 1
v -6 7 -10 1 1 1
v -6 6 -10 1 1 1
v -10 6 -10 1 1 1
v -6 7 -10 1 1 1
v -6 7 -6 1 1 1
v -6 6 -6 1 1 1
v -6 6 -10 1 1 1
v -10 7 -6 1 1 1
v -10 7 -10 1 1 1
v -10 6 -10 1 1 1
v -10 6 -6 1 1 1
vt 0.25 0.625
vt 0.25 0.765625
vt 0.25 0.78125
vt 0.5 0.640625
vt 0.375 0.640625
vt 0.375 0.65625
vt 0.5 0.65625
v -9 2 -9 1 1 1
v -7 2 -9 1 1 1
v -7 2 -7 1 1 1
v -9 2 -7 1 1 1
v -7 6 -9 1 1 1
v -9 6 -9 1 1 1
v -9 6 -7 1 1 1
v -7 6 -7 1 1 1
v -7 6 -7 1 1 1
v -9 6 -7 1 1 1
v -9 2 -7 1 1 1
v -7 2 -7 1 1 1
v -9 6 -9 1 1 1
v -7 6 -9 1 1 1
v -7 2 -9 1 1 1
v -9 2 -9 1 1 1
v -7 6 -9 1 1 1
v -7 6 -7 1 1 1
v -7 2 -7 1 1 1
v -7 2 -9 1 1 1
v -9 6 -7 1 1 1
v -9 6 -9 1 1 1
v -9 2 -9 1 1 1
v -9 2 -7 1 1 1
vt 0.375 0.6875
vt 0.4375 0.65625
vt 0.5 0.6875
vt 0.1875 0.75
vt 0.1875 0.6875
vt 0.3125 0.6875
vt 0.3125 0.625
g Element #14
usemtl Element
f 1/1/1 2/2/1 4/4/1
f 2/2/1 3/3/1 4/4/1
f 5/1/2 6/5/2 8/4/2
f 6/5/2 7/6/2 8/4/2
f 9/7/3 10/8/3 12/10/3
f 10/8/3 11/9/3 12/10/3
f 13/11/4 14/12/4 16/8/4
f 14/12/4 15/7/4 16/8/4
f 17/13/5 18/14/5 20/11/5
f 18/14/5 19/12/5 20/11/5
f 21/15/6 22/16/6 24/14/6
f 22/16/6 23/13/6 24/14/6
g Element #15
usemtl Element
f 29/20/2 30/21/2 32/2/2
f 30/21/2 31/22/2 32/2/2
f 33/23/3 34/24/3 36/18/3
f 34/24/3 35/17/3 36/18/3
f 37/25/4 38/5/4 40/24/4
f 38/5/4 39/23/4 40/24/4
f 41/26/5 42/27/5 44/29/5
f 42/27/5 43/28/5 44/29/5
f 45/30/6 46/31/6 48/27/6
f 46/31/6 47/26/6 48/27/6
g Element #16
usemtl Element
f 49/29/1 50/28/1 52/21/1
f 50/28/1 51/20/1 52/21/1
f 53/21/2 54/10/2 56/22/2
f 54/10/2 55/32/2 56/22/2
f 57/26/3 58/33/3 60/29/3
f 58/33/3 59/15/3 60/29/3
f 61/34/4 62/31/4 64/33/4
f 62/31/4 63/26/4 64/33/4
f 65/35/5 66/36/5 68/25/5
f 66/36/5 67/5/5 68/25/5
f 69/37/6 70/38/6 72/36/6
f 70/38/6 71/35/6 72/36/6
g Element #17
usemtl Element
f 81/29/3 82/42/3 84/21/3
f 82/42/3 83/43/3 84/21/3
f 85/15/4 86/42/4 88/10/4
f 86/42/4 87/43/4 88/10/4
f 89/44/5 90/10/5 92/45/5
f 90/10/5 91/32/5 92/45/5
f 93/44/6 94/39/6 96/45/6
f 94/39/6 95/5/6 96/45/6
